<svg width="26" height="30" viewBox="0 0 26 30" fill="none" xmlns="http://www.w3.org/2000/svg">
<path d="M0 6C0 2.68629 2.68629 0 6 0H20C23.3137 0 26 2.68629 26 6V24C26 27.3137 23.3137 30 20 30H6C2.68629 30 0 27.3137 0 24V6Z" fill="url(#paint0_linear_431_1224)"/>
<path fill-rule="evenodd" clipRule="evenodd" d="M13 26C19.0751 26 24 21.0751 24 15C24 8.92487 19.0751 4 13 4C6.92487 4 2 8.92487 2 15C2 21.0751 6.92487 26 13 26ZM13 9.375C13 7.51104 14.4924 6 16.3333 6C18.1743 6 19.6667 7.51104 19.6667 9.375C19.6667 10.3148 19.2873 11.1649 18.6751 11.7768C18.9883 11.6781 19.3214 11.625 19.6667 11.625C21.5076 11.625 23 13.136 23 15C23 16.8639 21.5076 18.375 19.6667 18.375C19.3214 18.375 18.9884 18.3218 18.6751 18.2232C19.2873 18.8351 19.6667 19.6852 19.6667 20.625C19.6667 22.4889 18.1743 24 16.3334 24C14.4924 24 13 22.4889 13 20.625C13 22.4889 11.5076 24 9.66665 24C7.8257 24 6.33331 22.4889 6.33331 20.625C6.33331 19.6852 6.7127 18.8351 7.32486 18.2232C7.01165 18.3218 6.67862 18.375 6.33333 18.375C4.49238 18.375 3 16.8639 3 15C3 13.136 4.49238 11.625 6.33333 11.625C6.67863 11.625 7.01166 11.6781 7.32489 11.7768C6.71272 11.1649 6.33333 10.3148 6.33333 9.375C6.33333 7.51104 7.82572 6 9.66667 6C11.5076 6 13 7.51104 13 9.375ZM15.2984 9.65329C15.4509 9.38592 15.7899 9.29509 16.0556 9.45042C16.3213 9.60575 16.4131 9.94842 16.2607 10.2158L15.1246 12.2082C15.7277 12.7139 16.1521 13.4305 16.2873 14.2465H18.5486C18.8593 14.2465 19.1111 14.4983 19.1111 14.809C19.1111 15.1196 18.8593 15.3715 18.5486 15.3715H16.2873C16.1521 16.1874 15.7277 16.9041 15.1245 17.4098L16.2606 19.4022C16.4131 19.6696 16.3213 20.0123 16.0556 20.1676C15.7898 20.3229 15.4508 20.2321 15.2984 19.9647L14.1626 17.973C13.8007 18.1094 13.4089 18.1839 13 18.1839C12.5911 18.1839 12.1993 18.1094 11.8373 17.973L10.7017 19.9646C10.5492 20.232 10.2102 20.3228 9.94448 20.1675C9.67876 20.0122 9.58695 19.6695 9.73941 19.4021L10.8755 17.4097C10.2723 16.9041 9.84798 16.1874 9.71278 15.3715H7.45142C7.14076 15.3715 6.88892 15.1196 6.88892 14.809C6.88892 14.4983 7.14076 14.2465 7.45142 14.2465H9.71277C9.84796 13.4306 10.2723 12.7139 10.8754 12.2082L9.73938 10.2159C9.58691 9.94853 9.67872 9.60586 9.94444 9.45053C10.2102 9.2952 10.5492 9.38603 10.7016 9.6534L11.8373 11.645C12.1993 11.5085 12.5911 11.4339 13 11.4339C13.409 11.4339 13.8007 11.5085 14.1627 11.6449L15.2984 9.65329ZM13 17C14.1046 17 15 16.1046 15 15C15 13.8954 14.1046 13 13 13C11.8954 13 11 13.8954 11 15C11 16.1046 11.8954 17 13 17Z" fill="white"/>
<defs>
<linearGradient id="paint0_linear_431_1224" x1="5" y1="4" x2="21.5" y2="26.5" gradientUnits="userSpaceOnUse">
<stop stop-color="#AF70FF"/>
<stop offset="1" stop-color="#55C1FF"/>
</linearGradient>
</defs>
</svg>
