<?xml version="1.0" standalone="no"?>
<!DOCTYPE svg PUBLIC "-//W3C//DTD SVG 20010904//EN"
 "http://www.w3.org/TR/2001/REC-SVG-20010904/DTD/svg10.dtd">
<svg version="1.0" xmlns="http://www.w3.org/2000/svg"
 width="591.000000pt" height="591.000000pt" viewBox="0 0 591.000000 591.000000"
 preserveAspectRatio="xMidYMid meet">
<metadata>
Created by potrace 1.14, written by Peter Selinger 2001-2017
</metadata>
<g transform="translate(0.000000,591.000000) scale(0.100000,-0.100000)"
fill="#000000" stroke="none">
<path d="M1449 5906 c-2 -2 -24 -6 -49 -10 -25 -3 -52 -7 -60 -9 -8 -2 -31 -7
-50 -11 -163 -37 -367 -143 -494 -257 -60 -54 -133 -130 -154 -161 -9 -13 -19
-25 -22 -28 -18 -15 -106 -170 -136 -240 -35 -85 -72 -213 -83 -290 -9 -67 -7
-3837 2 -3895 28 -175 90 -331 195 -490 60 -90 217 -247 307 -306 76 -50 195
-113 235 -124 14 -4 30 -11 35 -15 14 -11 168 -48 235 -57 68 -9 2994 -10
3071 -1 369 45 699 274 891 618 48 87 104 249 125 365 4 22 8 895 10 1940 3
2069 5 1968 -53 2150 -31 97 -92 223 -149 310 -52 78 -150 183 -240 258 -123
101 -351 208 -495 232 -25 4 -54 10 -65 13 -22 7 -3049 15 -3056 8z"/>
</g>
</svg>
