<?xml version="1.0" standalone="no"?>
<!DOCTYPE svg PUBLIC "-//W3C//DTD SVG 20010904//EN"
 "http://www.w3.org/TR/2001/REC-SVG-20010904/DTD/svg10.dtd">
<svg version="1.0" xmlns="http://www.w3.org/2000/svg"
 width="512.000000pt" height="512.000000pt" viewBox="0 0 512.000000 512.000000"
 preserveAspectRatio="xMidYMid meet">
<metadata>
Created by potrace 1.14, written by Peter Selinger 2001-2017
</metadata>
<g transform="translate(0.000000,512.000000) scale(0.100000,-0.100000)"
fill="#000000" stroke="none">
<path d="M0 2560 l0 -2560 2560 0 2560 0 0 2560 0 2560 -2560 0 -2560 0 0
-2560z m2885 1388 c-42 -423 -216 -677 -492 -719 -39 -5 -89 -9 -110 -7 l-38
3 2 48 c4 63 53 185 118 294 29 49 51 89 50 91 -2 2 -25 -8 -52 -21 -92 -47
-164 -148 -198 -278 -19 -69 -17 -143 7 -404 15 -171 13 -235 -11 -289 -30
-70 -57 -79 -247 -86 -157 -5 -162 -6 -210 -36 -31 -19 -58 -46 -74 -74 l-25
-45 0 -355 c0 -195 4 -372 8 -393 10 -49 55 -99 115 -128 46 -23 54 -24 297
-24 214 0 255 3 286 17 63 30 97 66 120 128 19 54 35 72 168 197 80 75 159
148 174 162 l29 26 -4 -240 c-5 -271 -12 -306 -89 -445 -72 -128 -181 -212
-320 -245 -93 -22 -649 -22 -734 0 -152 39 -260 129 -332 275 -75 154 -73 139
-73 655 0 511 -1 504 67 640 52 103 107 172 175 215 94 61 171 82 328 89 l135
6 3 122 c4 175 -25 275 -104 362 -37 41 -82 67 -135 78 l-32 6 41 -41 c48 -48
96 -138 117 -219 8 -31 15 -60 15 -64 0 -14 -110 -21 -168 -11 -122 22 -211
88 -276 205 -42 77 -83 209 -94 305 -8 72 -8 73 16 79 14 3 84 3 156 0 136 -6
240 -28 318 -68 57 -29 126 -96 153 -148 l22 -45 18 59 c23 82 55 133 123 198
69 65 150 108 269 142 120 34 184 42 351 44 l143 1 -6 -62z m735 -958 c182
-29 323 -154 406 -359 42 -105 45 -148 42 -614 -3 -424 -5 -445 -26 -507 -47
-142 -156 -283 -260 -338 -95 -51 -162 -62 -382 -62 -225 0 -246 6 -280 83
-27 58 -27 186 -1 244 33 71 51 77 246 83 161 5 173 7 227 33 63 31 90 62 107
122 14 52 15 705 1 757 -15 53 -56 97 -115 124 -49 23 -57 24 -330 24 -273 0
-281 -1 -330 -24 -50 -23 -98 -69 -118 -114 -10 -21 -346 -312 -361 -312 -13
0 -6 335 9 405 21 101 94 240 163 313 65 69 170 126 262 141 77 12 661 13 740
1z m-1512 -736 c110 -45 161 -173 113 -279 -19 -44 -69 -91 -110 -107 -35 -13
-119 -12 -156 2 -71 27 -125 109 -125 189 0 63 13 97 53 140 62 66 149 87 225
55z m1286 -21 c168 -118 89 -375 -114 -375 -185 0 -276 217 -145 347 49 50 93
65 164 60 40 -3 66 -12 95 -32z"/>
</g>
</svg>
